<svg width="16" height="18" viewBox="0 0 16 18" fill="none" xmlns="http://www.w3.org/2000/svg">
<path opacity="0.4" d="M13.3628 11.7423C13.3045 12.6822 13.2582 13.4281 13.1634 14.0238C13.0661 14.6348 12.9105 15.1436 12.5991 15.5887C12.3143 15.9959 11.9476 16.3395 11.5223 16.5977C11.0574 16.88 10.5383 17.0035 9.92043 17.0625L5.26489 17.0624C4.64634 17.0033 4.12667 16.8796 3.66145 16.5968C3.23588 16.3381 2.86903 15.9938 2.58429 15.586C2.27303 15.1402 2.11786 14.6306 2.02135 14.0188C1.92724 13.4221 1.88201 12.6752 1.82501 11.734L1.33008 3.5625H13.8701L13.3628 11.7423Z" fill="black" fill-opacity="0.3"/>
<path fill-rule="evenodd" clip-rule="evenodd" d="M9.8037 1.38443C9.45706 1.12932 9.05342 0.999983 8.62395 0.962078C8.36046 0.93882 8.04445 0.938475 7.69371 0.9381C7.66278 0.938063 7.63154 0.938033 7.6 0.93798C7.56838 0.937928 7.53677 0.937845 7.50515 0.937763C7.20472 0.936983 6.90346 0.936195 6.60432 0.963068C6.1652 1.00252 5.75344 1.1372 5.40254 1.40285C5.14308 1.59928 4.96574 1.83905 4.81594 2.09816C4.67706 2.33837 4.53881 2.63772 4.38183 2.97762L4.11142 3.56302H0.76C0.340267 3.56302 0 3.89881 0 4.31302C0 4.72724 0.340267 5.06302 0.76 5.06302H14.44C14.8597 5.06302 15.2 4.72724 15.2 4.31302C15.2 3.89881 14.8597 3.56302 14.44 3.56302H11.1585L10.8342 2.9028C10.6732 2.57498 10.5312 2.28599 10.3903 2.0542C10.2381 1.80407 10.06 1.57311 9.8037 1.38443ZM9.46937 3.56302H5.7819C5.93856 3.22423 6.04154 3.00515 6.13616 2.8415C6.28056 2.59176 6.4578 2.48243 6.74211 2.45689C6.94412 2.43875 7.20761 2.43802 7.62622 2.43802C8.03464 2.43802 8.29145 2.43872 8.48852 2.45612C8.76576 2.48059 8.94087 2.5859 9.08702 2.82615C9.18688 2.9903 9.29708 3.21248 9.46937 3.56302Z" fill="black" fill-opacity="0.3"/>
<path d="M5.69988 13.4736C5.38508 13.4736 5.12988 13.2219 5.12988 12.9111V8.41113C5.12988 8.10048 5.38508 7.84863 5.69988 7.84863C6.01467 7.84863 6.26988 8.10048 6.26988 8.41113V12.9111C6.26988 13.2219 6.01467 13.4736 5.69988 13.4736Z" fill="black" fill-opacity="0.3"/>
<path d="M9.49993 7.84863C9.81472 7.84863 10.0699 8.10048 10.0699 8.41113V12.9111C10.0699 13.2219 9.81472 13.4736 9.49993 13.4736C9.18514 13.4736 8.92993 13.2219 8.92993 12.9111V8.41113C8.92993 8.10048 9.18514 7.84863 9.49993 7.84863Z" fill="black" fill-opacity="0.3"/>
</svg>
