<svg width="18" height="18" viewBox="0 0 18 18" fill="none" xmlns="http://www.w3.org/2000/svg">
<path d="M8.16699 0.0419922C3.67968 0.0419922 0.0419922 3.67968 0.0419922 8.16699C0.0421682 12.6542 3.67979 16.292 8.16699 16.292C10.1858 16.2919 12.0312 15.5537 13.4521 14.335L16.8916 17.7754L17.7754 16.8916L14.3359 13.4512C15.5541 12.0304 16.2919 10.1853 16.292 8.16699C16.292 3.67981 12.6541 0.0422005 8.16699 0.0419922ZM8.16699 1.29199C11.9638 1.2922 15.042 4.37016 15.042 8.16699C15.0418 11.9637 11.9637 15.0418 8.16699 15.042C4.37014 15.042 1.29217 11.9638 1.29199 8.16699C1.29199 4.37003 4.37003 1.29199 8.16699 1.29199Z" fill="black" fill-opacity="0.3"/>
</svg>
