<svg width="20" height="20" viewBox="0 0 20 20" fill="none" xmlns="http://www.w3.org/2000/svg">
<path opacity="0.5" d="M1.6665 10.0002C1.6665 11.3663 2.02064 11.8264 2.72891 12.7466C4.14314 14.5838 6.51493 16.6668 9.99984 16.6668C13.4848 16.6668 15.8565 14.5838 17.2708 12.7466C17.979 11.8264 18.3332 11.3663 18.3332 10.0002C18.3332 8.634 17.979 8.17394 17.2708 7.25377C15.8565 5.41646 13.4848 3.3335 9.99984 3.3335C6.51493 3.3335 4.14314 5.41646 2.72891 7.25377C2.02064 8.17394 1.6665 8.634 1.6665 10.0002Z" fill="black" fill-opacity="0.3"/>
<path fill-rule="evenodd" clip-rule="evenodd" d="M6.875 10C6.875 8.27411 8.27411 6.875 10 6.875C11.7259 6.875 13.125 8.27411 13.125 10C13.125 11.7259 11.7259 13.125 10 13.125C8.27411 13.125 6.875 11.7259 6.875 10ZM8.125 10C8.125 8.9645 8.9645 8.125 10 8.125C11.0355 8.125 11.875 8.9645 11.875 10C11.875 11.0355 11.0355 11.875 10 11.875C8.9645 11.875 8.125 11.0355 8.125 10Z" fill="black" fill-opacity="0.3"/>
</svg>
