<svg width="42" height="42" viewBox="0 0 42 42" fill="none" xmlns="http://www.w3.org/2000/svg">
<path opacity="0.4" d="M21 2.1875C17.795 2.1875 14.76 3.47984 13.0596 5.6875H3.5C2.5335 5.6875 1.75 6.471 1.75 7.4375C1.75 8.404 2.5335 9.1875 3.5 9.1875H3.93751L3.93751 35.0783C3.93742 35.8357 3.93734 36.5302 4.01329 37.0951C4.09692 37.7172 4.29371 38.3747 4.8345 38.9155C5.37529 39.4563 6.03281 39.6531 6.6549 39.7367C7.21982 39.8127 7.91428 39.8126 8.67171 39.8125H33.3283C34.0857 39.8126 34.7802 39.8127 35.3451 39.7367C35.9672 39.6531 36.6247 39.4563 37.1655 38.9155C37.7063 38.3747 37.9031 37.7172 37.9867 37.0951C38.0627 36.5302 38.0626 35.8357 38.0625 35.0783L38.0625 9.1875H38.5C39.4665 9.1875 40.25 8.404 40.25 7.4375C40.25 6.471 39.4665 5.6875 38.5 5.6875H28.9404C27.24 3.47984 24.205 2.1875 21 2.1875Z" fill="#005E7A"/>
<path d="M21 27.5625C23.8995 27.5625 26.25 29.913 26.25 32.8125V39.8125H22.75V32.8125C22.75 31.846 21.9665 31.0625 21 31.0625C20.0335 31.0625 19.25 31.846 19.25 32.8125V39.8125H15.75V32.8125C15.75 29.913 18.1005 27.5625 21 27.5625ZM12.25 26.6875C12.9749 26.6875 13.5625 27.2751 13.5625 28C13.5625 28.7249 12.9749 29.3125 12.25 29.3125H10.5C9.77513 29.3125 9.1875 28.7249 9.1875 28C9.1875 27.2751 9.77513 26.6875 10.5 26.6875H12.25ZM31.5 26.6875C32.2249 26.6875 32.8125 27.2751 32.8125 28C32.8125 28.7249 32.2249 29.3125 31.5 29.3125H29.75C29.0251 29.3125 28.4375 28.7249 28.4375 28C28.4375 27.2751 29.0251 26.6875 29.75 26.6875H31.5ZM12.25 19.6875C12.9749 19.6875 13.5625 20.2751 13.5625 21C13.5625 21.7249 12.9749 22.3125 12.25 22.3125H10.5C9.77513 22.3125 9.1875 21.7249 9.1875 21C9.1875 20.2751 9.77513 19.6875 10.5 19.6875H12.25ZM31.5 19.6875C32.2249 19.6875 32.8125 20.2751 32.8125 21C32.8125 21.7249 32.2249 22.3125 31.5 22.3125H29.75C29.0251 22.3125 28.4375 21.7249 28.4375 21C28.4375 20.2751 29.0251 19.6875 29.75 19.6875H31.5ZM12.25 12.6875C12.9749 12.6875 13.5625 13.2751 13.5625 14C13.5625 14.7249 12.9749 15.3125 12.25 15.3125H10.5C9.77513 15.3125 9.1875 14.7249 9.1875 14C9.1875 13.2751 9.77513 12.6875 10.5 12.6875H12.25ZM31.5 12.6875C32.2249 12.6875 32.8125 13.2751 32.8125 14C32.8125 14.7249 32.2249 15.3125 31.5 15.3125H29.75C29.0251 15.3125 28.4375 14.7249 28.4375 14C28.4375 13.2751 29.0251 12.6875 29.75 12.6875H31.5ZM21 2.1875C24.205 2.1875 27.24 3.47984 28.9404 5.6875H38.5C39.4665 5.6875 40.25 6.471 40.25 7.4375C40.25 8.404 39.4665 9.1875 38.5 9.1875H28C27.3597 9.1875 26.7706 8.83747 26.4639 8.27539C25.7298 6.93042 23.7119 5.6875 21 5.6875C18.2881 5.6875 16.2702 6.93042 15.5361 8.27539C15.2294 8.83747 14.6403 9.1875 14 9.1875H3.5C2.5335 9.1875 1.75 8.404 1.75 7.4375C1.75 6.471 2.5335 5.6875 3.5 5.6875H13.0596C14.76 3.47984 17.795 2.1875 21 2.1875Z" fill="#005E7A"/>
</svg>
