<svg width="24" height="24" viewBox="0 0 24 24" fill="none" xmlns="http://www.w3.org/2000/svg">
<path d="M6.03613 13.25C6.77528 13.25 7.3835 13.2501 7.875 13.2969C8.38561 13.3454 8.84808 13.4494 9.26855 13.707C9.68603 13.9629 10.0371 14.314 10.293 14.7314C10.5506 15.1519 10.6546 15.6144 10.7031 16.125C10.7499 16.6165 10.75 17.2247 10.75 17.9639V18.0361C10.75 18.7753 10.7499 19.3835 10.7031 19.875C10.6546 20.3856 10.5506 20.8481 10.293 21.2686C10.0371 21.686 9.68603 22.0371 9.26855 22.293C8.84808 22.5506 8.38561 22.6546 7.875 22.7031C7.38351 22.7499 6.77527 22.75 6.03613 22.75H5.96387C5.22473 22.75 4.61649 22.7499 4.125 22.7031C3.61439 22.6546 3.15191 22.5506 2.73145 22.293C2.31397 22.0371 1.96287 21.686 1.70703 21.2686C1.44937 20.8481 1.34545 20.3856 1.29688 19.875C1.25014 19.3835 1.24999 18.7753 1.25 18.0361V17.9639C1.24999 17.2247 1.25014 16.6165 1.29688 16.125C1.34545 15.6144 1.44937 15.1519 1.70703 14.7314C1.96287 14.314 2.31397 13.9629 2.73145 13.707C3.15191 13.4494 3.61439 13.3454 4.125 13.2969C4.6165 13.2501 5.22472 13.25 5.96387 13.25H6.03613ZM6 14.75C5.21545 14.75 4.67964 14.7509 4.26758 14.79C3.86674 14.8282 3.66088 14.8973 3.51562 14.9863C3.29994 15.1185 3.1185 15.2999 2.98633 15.5156C2.89735 15.6609 2.82815 15.8667 2.79004 16.2676C2.75088 16.6796 2.75 17.2154 2.75 18C2.75 18.7846 2.75088 19.3204 2.79004 19.7324C2.82815 20.1333 2.89735 20.3391 2.98633 20.4844C3.1185 20.7001 3.29994 20.8815 3.51562 21.0137C3.66088 21.1027 3.86674 21.1718 4.26758 21.21C4.67964 21.2491 5.21545 21.25 6 21.25C6.78455 21.25 7.32036 21.2491 7.73242 21.21C8.13326 21.1718 8.33912 21.1027 8.48438 21.0137C8.70006 20.8815 8.8815 20.7001 9.01367 20.4844C9.10265 20.3391 9.17185 20.1333 9.20996 19.7324C9.24912 19.3204 9.25 18.7846 9.25 18C9.25 17.2154 9.24912 16.6796 9.20996 16.2676C9.17185 15.8667 9.10265 15.6609 9.01367 15.5156C8.8815 15.2999 8.70006 15.1185 8.48438 14.9863C8.33912 14.8973 8.13326 14.8282 7.73242 14.79C7.32036 14.7509 6.78455 14.75 6 14.75ZM18.0361 1.25C18.7753 1.24999 19.3835 1.25014 19.875 1.29688C20.3856 1.34545 20.8481 1.44937 21.2686 1.70703C21.686 1.96287 22.0371 2.31397 22.293 2.73145C22.5506 3.15191 22.6546 3.61439 22.7031 4.125C22.7499 4.61649 22.75 5.22473 22.75 5.96387V6.03613C22.75 6.77527 22.7499 7.38351 22.7031 7.875C22.6546 8.38561 22.5506 8.84808 22.293 9.26855C22.0371 9.68603 21.686 10.0371 21.2686 10.293C20.8481 10.5506 20.3856 10.6546 19.875 10.7031C19.3835 10.7499 18.7753 10.75 18.0361 10.75H17.9639C17.2247 10.75 16.6165 10.7499 16.125 10.7031C15.6144 10.6546 15.1519 10.5506 14.7314 10.293C14.314 10.0371 13.9629 9.68603 13.707 9.26855C13.4494 8.84808 13.3454 8.38561 13.2969 7.875C13.2501 7.3835 13.25 6.77528 13.25 6.03613V5.96387C13.25 5.22472 13.2501 4.6165 13.2969 4.125C13.3454 3.61439 13.4494 3.15191 13.707 2.73145C13.9629 2.31397 14.314 1.96287 14.7314 1.70703C15.1519 1.44937 15.6144 1.34545 16.125 1.29688C16.6165 1.25014 17.2247 1.24999 17.9639 1.25H18.0361ZM18 2.75C17.2154 2.75 16.6796 2.75088 16.2676 2.79004C15.8667 2.82815 15.6609 2.89735 15.5156 2.98633C15.2999 3.1185 15.1185 3.29994 14.9863 3.51562C14.8973 3.66088 14.8282 3.86674 14.79 4.26758C14.7509 4.67964 14.75 5.21545 14.75 6C14.75 6.78455 14.7509 7.32036 14.79 7.73242C14.8282 8.13326 14.8973 8.33912 14.9863 8.48438C15.1185 8.70006 15.2999 8.8815 15.5156 9.01367C15.6609 9.10265 15.8667 9.17185 16.2676 9.20996C16.6796 9.24912 17.2154 9.25 18 9.25C18.7846 9.25 19.3204 9.24912 19.7324 9.20996C20.1333 9.17185 20.3391 9.10265 20.4844 9.01367C20.7001 8.8815 20.8815 8.70006 21.0137 8.48438C21.1027 8.33912 21.1718 8.13326 21.21 7.73242C21.2491 7.32036 21.25 6.78455 21.25 6C21.25 5.21545 21.2491 4.67964 21.21 4.26758C21.1718 3.86674 21.1027 3.66088 21.0137 3.51562C20.8815 3.29994 20.7001 3.1185 20.4844 2.98633C20.3391 2.89735 20.1333 2.82815 19.7324 2.79004C19.3204 2.75088 18.7846 2.75 18 2.75Z" fill="black" fill-opacity="0.3"/>
<path opacity="0.4" fill-rule="evenodd" clip-rule="evenodd" d="M17.9635 13.25H18.0365C18.7757 13.25 19.3832 13.25 19.8747 13.2967C20.3854 13.3453 20.8478 13.4495 21.2683 13.7072C21.6859 13.9631 22.0369 14.3141 22.2928 14.7317C22.5505 15.1522 22.6547 15.6146 22.7033 16.1253C22.75 16.6168 22.75 17.2243 22.75 17.9634V18.0366C22.75 18.7757 22.75 19.3832 22.7033 19.8747C22.6547 20.3854 22.5505 20.8478 22.2928 21.2683C22.0369 21.6859 21.6859 22.0369 21.2683 22.2928C20.8478 22.5505 20.3854 22.6547 19.8747 22.7033C19.3832 22.75 18.7757 22.75 18.0366 22.75H17.9634C17.2243 22.75 16.6168 22.75 16.1253 22.7033C15.6146 22.6547 15.1522 22.5505 14.7317 22.2928C14.3141 22.0369 13.9631 21.6859 13.7072 21.2683C13.4495 20.8478 13.3453 20.3854 13.2967 19.8747C13.25 19.3832 13.25 18.7757 13.25 18.0365V17.9635C13.25 17.2243 13.25 16.6168 13.2967 16.1253C13.3453 15.6146 13.4495 15.1522 13.7072 14.7317C13.9631 14.3141 14.3141 13.9631 14.7317 13.7072C15.1522 13.4495 15.6146 13.3453 16.1253 13.2967C16.6168 13.25 17.2243 13.25 17.9635 13.25ZM16.2673 14.79C15.8663 14.8281 15.6607 14.8972 15.5154 14.9862C15.2997 15.1184 15.1184 15.2997 14.9862 15.5154C14.8972 15.6607 14.8281 15.8663 14.79 16.2673C14.7508 16.6794 14.75 17.2153 14.75 18C14.75 18.7847 14.7508 19.3206 14.79 19.7327C14.8281 20.1337 14.8972 20.3393 14.9862 20.4846C15.1184 20.7003 15.2997 20.8816 15.5154 21.0138C15.6607 21.1028 15.8663 21.1719 16.2673 21.21C16.6794 21.2492 17.2153 21.25 18 21.25C18.7847 21.25 19.3206 21.2492 19.7327 21.21C20.1337 21.1719 20.3393 21.1028 20.4846 21.0138C20.7003 20.8816 20.8816 20.7003 21.0138 20.4846C21.1028 20.3393 21.1719 20.1337 21.21 19.7327C21.2492 19.3206 21.25 18.7847 21.25 18C21.25 17.2153 21.2492 16.6794 21.21 16.2673C21.1719 15.8663 21.1028 15.6607 21.0138 15.5154C20.8816 15.2997 20.7003 15.1184 20.4846 14.9862C20.3393 14.8972 20.1337 14.8281 19.7327 14.79C19.3206 14.7508 18.7847 14.75 18 14.75C17.2153 14.75 16.6794 14.7508 16.2673 14.79Z" fill="black" fill-opacity="0.3"/>
<path opacity="0.4" fill-rule="evenodd" clip-rule="evenodd" d="M5.96345 1.25H6.03655C6.7757 1.24999 7.38321 1.24998 7.87471 1.29671C8.38544 1.34527 8.84779 1.44953 9.26834 1.70725C9.68586 1.9631 10.0369 2.31414 10.2928 2.73166C10.5505 3.15221 10.6547 3.61456 10.7033 4.12529C10.75 4.61678 10.75 5.2243 10.75 5.96344V6.03656C10.75 6.7757 10.75 7.38322 10.7033 7.87471C10.6547 8.38544 10.5505 8.84779 10.2928 9.26834C10.0369 9.68586 9.68586 10.0369 9.26834 10.2928C8.84779 10.5505 8.38544 10.6547 7.87471 10.7033C7.38322 10.75 6.7757 10.75 6.03656 10.75H5.96344C5.2243 10.75 4.61678 10.75 4.12529 10.7033C3.61456 10.6547 3.15221 10.5505 2.73166 10.2928C2.31414 10.0369 1.9631 9.68586 1.70725 9.26834C1.44953 8.84779 1.34527 8.38544 1.29671 7.87471C1.24998 7.38321 1.24999 6.7757 1.25 6.03655V5.96345C1.24999 5.22431 1.24998 4.61679 1.29671 4.12529C1.34527 3.61456 1.44953 3.15221 1.70725 2.73166C1.9631 2.31414 2.31414 1.9631 2.73166 1.70725C3.15221 1.44953 3.61456 1.34527 4.12529 1.29671C4.61679 1.24998 5.22431 1.24999 5.96345 1.25ZM4.26727 2.78997C3.86633 2.8281 3.66066 2.8972 3.51541 2.98621C3.29972 3.11838 3.11838 3.29972 2.98621 3.51541C2.8972 3.66066 2.8281 3.86633 2.78997 4.26727C2.75079 4.67937 2.75 5.21526 2.75 6C2.75 6.78474 2.75079 7.32063 2.78997 7.73273C2.8281 8.13367 2.8972 8.33934 2.98621 8.48459C3.11838 8.70028 3.29972 8.88162 3.51541 9.01379C3.66066 9.10281 3.86633 9.17191 4.26727 9.21003C4.67937 9.24921 5.21526 9.25 6 9.25C6.78474 9.25 7.32063 9.24921 7.73273 9.21003C8.13367 9.17191 8.33934 9.10281 8.48459 9.01379C8.70028 8.88162 8.88162 8.70028 9.01379 8.48459C9.10281 8.33934 9.17191 8.13367 9.21003 7.73273C9.24921 7.32063 9.25 6.78474 9.25 6C9.25 5.21526 9.24921 4.67937 9.21003 4.26727C9.17191 3.86633 9.10281 3.66066 9.01379 3.51541C8.88162 3.29972 8.70028 3.11838 8.48459 2.98621C8.33934 2.8972 8.13367 2.8281 7.73273 2.78997C7.32063 2.75079 6.78474 2.75 6 2.75C5.21526 2.75 4.67937 2.75079 4.26727 2.78997Z" fill="black" fill-opacity="0.3"/>
</svg>
