<svg width="24" height="24" viewBox="0 0 24 24" fill="none" xmlns="http://www.w3.org/2000/svg">
<path opacity="0.4" fill-rule="evenodd" clip-rule="evenodd" d="M17.9339 11.3633L15.7845 10.7185L16.2156 9.28174L18.365 9.92656C18.3786 9.93065 18.3922 9.93473 18.4058 9.9388C19.0576 10.1343 19.6078 10.2994 20.0408 10.4862C20.5008 10.6846 20.9013 10.9366 21.2064 11.3466C21.5114 11.7566 21.6377 12.2126 21.6956 12.7103C21.7501 13.1787 21.7501 13.7531 21.7501 14.4336L21.7501 22.0001H20.2501V14.4762C20.2501 13.7417 20.2489 13.2551 20.2057 12.8836C20.1647 12.5316 20.0933 12.3634 20.0029 12.242C19.9126 12.1206 19.772 12.0038 19.4466 11.8635C19.1032 11.7153 18.6375 11.5743 17.9339 11.3633Z" fill="black" fill-opacity="0.3"/>
<path d="M22 22.75C22.4142 22.75 22.75 22.4142 22.75 22C22.75 21.5858 22.4142 21.25 22 21.25H16.75V8.12598C16.75 7.40454 16.75 6.80025 16.6943 6.30957C16.6356 5.79168 16.5081 5.32015 16.1992 4.89746C15.8883 4.47213 15.4786 4.21179 15.0049 4.00977C14.5605 3.8203 13.996 3.65645 13.3291 3.46289L8.22754 1.98242C7.11325 1.65895 6.19447 1.39271 5.45703 1.29395C4.68471 1.19055 3.95206 1.24729 3.32715 1.73926C2.70912 2.22592 2.46641 2.92645 2.35645 3.71094C2.25026 4.46862 2.24997 5.45355 2.25 6.65918L2.25 21.25H2C1.58579 21.25 1.25 21.5858 1.25 22C1.25 22.4142 1.58579 22.75 2 22.75L22 22.75ZM3.75 6.7168C3.75 5.43865 3.75193 4.56006 3.8418 3.91895C3.92956 3.29284 4.08202 3.05421 4.25488 2.91797C4.42116 2.78707 4.66729 2.70122 5.25781 2.78027C5.87006 2.86225 6.67947 3.09539 7.86816 3.44043L12.8682 4.8916C13.5888 5.10077 14.0651 5.24001 14.416 5.38965C14.7469 5.53073 14.8927 5.65144 14.9883 5.78223C15.0857 5.91549 15.1612 6.10126 15.2041 6.47949C15.249 6.87574 15.25 7.39442 15.25 8.16895L15.25 21.25H12.75V18.9551C12.7501 18.5223 12.7504 18.1255 12.707 17.8027C12.6592 17.4473 12.5463 17.0717 12.2373 16.7627C11.9283 16.4537 11.5527 16.3408 11.1973 16.293C10.8745 16.2496 10.4777 16.2499 10.0449 16.25H8.95508C8.52233 16.2499 8.1255 16.2496 7.80273 16.293C7.44726 16.3408 7.07171 16.4537 6.7627 16.7627C6.45368 17.0717 6.34076 17.4473 6.29297 17.8027C6.24957 18.1255 6.24995 18.5223 6.25 18.9551L6.25 21.25H3.75L3.75 6.7168ZM11 9.75C11.4142 9.75 11.75 9.41421 11.75 9C11.75 8.58579 11.4142 8.25 11 8.25L8 8.25C7.58579 8.25 7.25 8.58579 7.25 9C7.25 9.41421 7.58579 9.75 8 9.75L11 9.75ZM11 13.75C11.4142 13.75 11.75 13.4142 11.75 13C11.75 12.5858 11.4142 12.25 11 12.25L8 12.25C7.58579 12.25 7.25 12.5858 7.25 13C7.25 13.4142 7.58579 13.75 8 13.75L11 13.75ZM7.75 19C7.75 18.5076 7.75197 18.2136 7.78027 18.0029C7.79326 17.9064 7.80842 17.8577 7.81738 17.8359C7.81944 17.831 7.82126 17.8271 7.82227 17.8252L7.82324 17.8232L7.8252 17.8223C7.82712 17.8213 7.83095 17.8194 7.83594 17.8174C7.85772 17.8084 7.90637 17.7933 8.00293 17.7803C8.21364 17.752 8.50756 17.75 9 17.75H10C10.4924 17.75 10.7864 17.752 10.9971 17.7803C11.0936 17.7933 11.1423 17.8084 11.1641 17.8174C11.1691 17.8194 11.1729 17.8213 11.1748 17.8223L11.1768 17.8232L11.1777 17.8252C11.1787 17.8271 11.1806 17.831 11.1826 17.8359C11.1916 17.8577 11.2067 17.9064 11.2197 18.0029C11.248 18.2136 11.25 18.5076 11.25 19V21.25H7.75L7.75 19Z" fill="black" fill-opacity="0.3"/>
</svg>
