<svg width="25" height="24" viewBox="0 0 25 24" fill="none" xmlns="http://www.w3.org/2000/svg">
<path d="M1.1853 10.7816H13.2432V13.465L13.312 13.528C13.7328 13.2623 14.1729 13.0209 14.5703 12.7247C15.5792 11.9735 16.3368 10.983 17.1398 10.0324C17.9284 9.09618 18.7115 8.15109 19.5682 7.27719C20.62 6.18854 22.0163 5.48404 23.5283 5.27923C23.6213 5.26567 23.7128 5.24601 23.8038 5.22974C23.8191 5.23071 23.8344 5.23321 23.8492 5.2372C23.854 5.30499 23.863 5.37618 23.863 5.44872C23.863 6.47991 23.8664 7.51177 23.8589 8.54296C23.8613 8.6475 23.8243 8.74922 23.7549 8.82838C22.6929 9.75245 21.8795 10.8684 21.1667 12.0609C20.4319 13.2914 19.728 14.5402 18.9732 15.7585C18.2308 16.9579 17.3361 18.0352 16.1454 18.8419C15.1824 19.499 14.0692 19.9111 12.905 20.0413C12.6467 20.0711 12.4952 20.1694 12.3499 20.3945C11.3031 22.0162 9.81685 22.9789 7.8623 23.1924C6.3703 23.3551 4.87049 22.962 3.65817 22.0906C2.44585 21.2192 1.60887 19.9325 1.31202 18.484C1.23812 18.1367 1.198 17.7832 1.19219 17.4284C1.18117 15.2813 1.18668 13.1335 1.18668 10.9877L1.1853 10.7816ZM2.5207 14.7816V15.0704C2.5207 15.7886 2.5207 16.5068 2.5207 17.225C2.5207 19.6474 4.1915 21.5396 6.62745 21.886C9.30927 22.2677 11.8616 20.1341 11.9071 17.4731C11.9202 16.6453 11.9119 15.8169 11.9119 14.9884C11.9119 14.9206 11.9022 14.8582 11.8954 14.7816H2.5207ZM13.0806 18.6867C13.2005 18.6677 13.2838 18.6602 13.3637 18.6419C14.781 18.3179 15.9119 17.5504 16.8313 16.4602C18.1281 14.9213 18.9704 13.1043 19.9994 11.404C20.013 11.3697 20.0177 11.3327 20.013 11.2962C20.0083 11.2597 19.9944 11.225 19.9725 11.1952C19.5765 10.8365 19.1702 10.4887 18.7583 10.1314C18.7142 10.1775 18.6832 10.206 18.6571 10.2372C18.1323 10.8724 17.624 11.5206 17.0799 12.1416C16.0558 13.3118 14.9036 14.3233 13.3933 14.8535C13.2356 14.9091 13.2466 15.0094 13.2432 15.1294C13.2101 16.303 13.3582 17.4806 13.082 18.6887L13.0806 18.6867ZM11.8988 12.0948H2.53241V13.4569H11.8988V12.0948ZM22.5276 6.88126C21.31 7.35245 20.4312 8.18296 19.602 9.11516L20.7886 10.1457C20.8117 10.1353 20.8337 10.1226 20.854 10.1077C21.3834 9.48895 21.9114 8.86951 22.4381 8.2494C22.4839 8.20148 22.5131 8.14047 22.5214 8.07516C22.5352 7.69143 22.529 7.30567 22.529 6.8833L22.5276 6.88126Z" fill="black" fill-opacity="0.3"/>
<path opacity="0.4" d="M11.0854 5.47988C11.0337 5.77073 11.0165 6.03649 10.938 6.28056C10.637 7.1809 9.89944 7.68327 8.8774 7.69276C8.66597 7.69276 8.57506 7.73615 8.51996 7.96395C8.41764 8.38641 8.17657 8.76384 7.83413 9.03768C7.4917 9.31153 7.06704 9.46649 6.62602 9.47852C5.70798 9.50157 4.78787 9.507 3.8712 9.47852C3.33631 9.45959 2.83048 9.23419 2.46305 8.85105C2.09563 8.46792 1.89614 7.95783 1.9077 7.43107C1.91473 6.90547 2.12888 6.40311 2.50497 6.02997C2.88106 5.65683 3.38969 5.44209 3.92354 5.43107C4.06748 5.42768 4.21211 5.43107 4.34847 5.43107C4.63635 4.467 4.79475 4.26496 5.5847 3.79784C5.60949 3.3992 5.58126 3.02225 5.6639 2.66971C5.91115 1.60937 6.82161 0.921912 7.92354 0.9192C8.94558 0.9192 9.96693 0.910387 10.989 0.9192C12.137 0.931404 13.1198 1.8331 13.2397 2.96734C13.2913 3.51116 13.1448 4.05534 12.8262 4.50251C12.5075 4.94968 12.0377 5.27066 11.5007 5.40801C11.3602 5.43784 11.2156 5.45683 11.0854 5.47988ZM8.12396 4.89208C8.08126 4.91378 8.06748 4.92734 8.05509 4.92734C7.56519 4.92734 7.07552 4.92869 6.58608 4.9314C5.86431 4.9314 5.55922 5.34225 5.76858 6.02835C5.83745 6.2514 5.90632 6.4731 5.99104 6.73344H5.68249C5.14117 6.73344 4.59985 6.73344 4.05853 6.73344C3.56197 6.73344 3.24104 7.01751 3.23759 7.44666C3.23415 7.88869 3.55646 8.17547 4.06817 8.17751C4.85788 8.18022 5.64806 8.18022 6.43869 8.17751C7.08263 8.17751 7.40288 7.72734 7.19627 7.11988C7.11913 6.88869 7.04682 6.65683 6.96004 6.387H7.24586C7.79682 6.387 8.34778 6.387 8.89462 6.387C9.22106 6.387 9.48415 6.28056 9.63566 5.98022C9.78718 5.67988 9.71142 5.40734 9.5117 5.15513C9.30095 4.88801 9.09021 4.62157 8.88222 4.35242C8.84351 4.29267 8.80899 4.23037 8.77891 4.16598C9.50481 4.16598 10.1914 4.16598 10.8781 4.16598C11.4786 4.16191 11.9111 3.75445 11.9111 3.1992C11.9111 2.64395 11.491 2.23106 10.8864 2.22971C9.90701 2.22632 8.92767 2.22971 7.94902 2.22971C7.51927 2.22971 7.19145 2.40056 7.01307 2.7809C6.82161 3.18022 6.89668 3.5531 7.19903 3.88191C7.50137 4.21073 7.80784 4.54428 8.12602 4.89208H8.12396Z" fill="black" fill-opacity="0.3"/>
</svg>
