<svg width="24" height="24" viewBox="0 0 24 24" fill="none" xmlns="http://www.w3.org/2000/svg">
<path d="M12.0001 2.25C15.9437 2.25 19.3607 4.86285 19.7169 8.39063C20.2475 8.6103 20.5969 9.03949 20.8282 9.32422C20.8486 9.34938 20.8682 9.37384 20.8868 9.39648L20.9054 9.41895C21.3614 9.97281 21.7303 10.421 22.004 10.8096C22.2866 11.2108 22.5009 11.5932 22.6192 12.0264C22.7938 12.6656 22.7938 13.3354 22.6192 13.9746C22.4561 14.5715 22.1275 15.085 21.7999 15.5137C21.6015 15.7732 21.3614 16.0523 21.1495 16.2979C21.0336 16.4321 20.9261 16.5563 20.8389 16.6621C20.8298 16.6732 20.8202 16.6847 20.8106 16.6963C20.4667 17.1151 19.8818 17.8275 18.837 17.7432C18.4793 17.7142 18.1374 17.5587 17.7745 17.3926C17.7466 17.3798 17.7187 17.3663 17.6905 17.3535C17.6687 17.3436 17.6468 17.3341 17.6251 17.3242C17.3525 17.2006 17.0852 17.0797 16.8722 16.8945C16.2493 16.3528 16.2497 15.6371 16.2501 15.2236V10.7764C16.2497 10.3629 16.2494 9.6481 16.8722 9.10645C17.0852 8.92114 17.3524 8.79942 17.6251 8.67578C17.6468 8.66593 17.6687 8.6564 17.6905 8.64648C17.7186 8.63369 17.7467 8.62113 17.7745 8.6084C17.9218 8.54097 18.0663 8.47626 18.2091 8.41992C17.8681 5.87395 15.3154 3.75 12.0001 3.75C8.68474 3.75 6.13101 5.8739 5.79012 8.41992C5.93326 8.47634 6.07798 8.54081 6.22567 8.6084C6.25349 8.62113 6.28156 8.63369 6.30965 8.64648C6.33137 8.65638 6.35341 8.66595 6.37508 8.67578C6.64777 8.79942 6.91493 8.92114 7.12801 9.10645C7.75085 9.64811 7.75043 10.3629 7.75008 10.7764L7.75008 15.2236C7.75043 15.6371 7.75089 16.3528 7.12801 16.8945C6.91498 17.0797 6.64765 17.2006 6.37508 17.3242C6.35336 17.3341 6.33142 17.3436 6.30965 17.3535C6.28151 17.3663 6.25354 17.3798 6.22567 17.3926C5.86301 17.5585 5.52159 17.7141 5.16414 17.7432C4.11909 17.8277 3.53344 17.1151 3.18953 16.6963C3.18 16.6847 3.17038 16.6732 3.16121 16.6621C3.07406 16.5563 2.96651 16.4321 2.85067 16.2979C2.63879 16.0523 2.39862 15.7732 2.20028 15.5137C1.87269 15.085 1.54405 14.5715 1.38094 13.9746C1.20633 13.3355 1.20638 12.6655 1.38094 12.0264C1.49927 11.5932 1.71357 11.2108 1.99617 10.8096C2.26991 10.421 2.6388 9.97281 3.09481 9.41895L3.11336 9.39648C3.13203 9.37381 3.15149 9.34941 3.17196 9.32422C3.40316 9.03967 3.75219 8.61045 4.28231 8.39062C4.63843 4.8628 8.05645 2.25 12.0001 2.25ZM5.04305 9.75195C4.91918 9.74194 4.83986 9.77005 4.74129 9.84375C4.60774 9.94366 4.48224 10.0937 4.27156 10.3496C3.79289 10.931 3.46013 11.3359 3.22274 11.6729C2.99055 12.0025 2.88246 12.2233 2.82821 12.4219C2.72438 12.8022 2.7243 13.1988 2.82821 13.5791C2.91687 13.9035 3.11161 14.237 3.39168 14.6035C3.57176 14.8392 3.74661 15.0396 3.93074 15.252C4.05422 15.3943 4.18211 15.5422 4.31942 15.709C4.51434 15.9457 4.63617 16.0821 4.75692 16.168C4.84626 16.2315 4.92192 16.2578 5.04305 16.248C5.10263 16.2432 5.18625 16.218 5.68856 15.9893C6.0704 15.8153 6.11769 15.7852 6.14363 15.7627C6.18834 15.7238 6.20682 15.6912 6.22176 15.6309C6.2438 15.5416 6.25008 15.4223 6.25008 15.1953L6.25008 10.8047C6.25008 10.5779 6.24375 10.4593 6.22176 10.3701C6.20681 10.3096 6.18841 10.2772 6.14363 10.2383C6.11776 10.2158 6.07162 10.1862 5.68856 10.0117C5.18616 9.78289 5.10263 9.75683 5.04305 9.75195ZM18.9581 9.75195C18.8985 9.75677 18.8156 9.78259 18.3126 10.0117C17.929 10.1864 17.8824 10.2158 17.8565 10.2383C17.8118 10.2772 17.7933 10.3096 17.7784 10.3701C17.7564 10.4593 17.7501 10.5779 17.7501 10.8047V15.1953C17.7501 15.4223 17.7564 15.5416 17.7784 15.6309C17.7933 15.6912 17.8118 15.7238 17.8565 15.7627C17.8824 15.7852 17.93 15.815 18.3126 15.9893C18.8154 16.2183 18.8985 16.2432 18.9581 16.248C19.079 16.2577 19.1549 16.2315 19.2442 16.168C19.3648 16.0821 19.486 15.9455 19.6807 15.709C19.8181 15.5421 19.9469 15.3944 20.0704 15.252C20.2544 15.0397 20.4285 14.839 20.6085 14.6035C20.8885 14.237 21.0833 13.9035 21.172 13.5791C21.2759 13.1988 21.2758 12.8022 21.172 12.4219C21.1177 12.2233 21.0096 12.0025 20.7774 11.6729C20.54 11.3359 20.2082 10.9309 19.7296 10.3496C19.5187 10.0935 19.3925 9.94371 19.2589 9.84375C19.1605 9.77021 19.0816 9.74205 18.9581 9.75195Z" fill="black" fill-opacity="0.3"/>
<path opacity="0.4" fill-rule="evenodd" clip-rule="evenodd" d="M19 16.25C19.4142 16.25 19.75 16.5858 19.75 17V17.8C19.75 20.129 17.4585 21.75 15 21.75H13C12.5858 21.75 12.25 21.4142 12.25 21C12.25 20.5858 12.5858 20.25 13 20.25H15C16.9597 20.25 18.25 19.0056 18.25 17.8V17C18.25 16.5858 18.5858 16.25 19 16.25Z" fill="black" fill-opacity="0.3"/>
</svg>
