<svg width="20" height="22" viewBox="0 0 20 22" fill="none" xmlns="http://www.w3.org/2000/svg">
<path d="M1.92786 8.27697C1.92789 3.84151 5.54419 0.25 10 0.25C14.4558 0.25 18.0721 3.84155 18.0721 8.27703C18.0722 9.3088 18.1416 10.0874 18.6173 10.7873C18.6835 10.8832 18.7712 11.0033 18.8671 11.1345C19.0337 11.3625 19.2247 11.624 19.3697 11.8505C19.6255 12.2503 19.8754 12.7324 19.9613 13.2942C20.2416 15.127 18.9494 16.3136 17.6625 16.8454C13.1298 18.7182 6.87016 18.7182 2.33746 16.8454C1.05056 16.3136 -0.241643 15.127 0.0386774 13.2942C0.124587 12.7324 0.374517 12.2503 0.630327 11.8505C0.775277 11.624 0.966357 11.3624 1.13291 11.1345C1.22879 11.0033 1.31657 10.8831 1.38271 10.7872C1.85838 10.0873 1.92776 9.3087 1.92786 8.27697Z" fill="#005E7A"/>
<path opacity="0.4" fill-rule="evenodd" clip-rule="evenodd" d="M5.74341 16.7838C6.27717 16.6419 6.82485 16.9596 6.9667 17.4934C7.30659 18.7724 8.5207 19.7502 10.0002 19.7502C11.4798 19.7502 12.6939 18.7724 13.0338 17.4934C13.1756 16.9596 13.7233 16.6419 14.2571 16.7838C14.7908 16.9256 15.1086 17.4733 14.9667 18.0071C14.3896 20.1786 12.3697 21.7502 10.0002 21.7502C7.63084 21.7502 5.61087 20.1786 5.03379 18.0071C4.89194 17.4733 5.20965 16.9256 5.74341 16.7838Z" fill="#005E7A"/>
</svg>
