<svg width="16" height="18" viewBox="0 0 16 18" fill="none" xmlns="http://www.w3.org/2000/svg">
<path opacity="0.4" d="M13.7627 11.7423C13.7044 12.6822 13.6581 13.4281 13.5633 14.0238C13.4661 14.6348 13.3104 15.1436 12.999 15.5887C12.7142 15.9959 12.3475 16.3395 11.9222 16.5977C11.4573 16.88 10.9382 17.0035 10.3203 17.0625L5.6648 17.0624C5.04624 17.0033 4.52657 16.8796 4.06136 16.5968C3.63578 16.3381 3.26893 15.9938 2.98419 15.586C2.67294 15.1402 2.51777 14.6306 2.42125 14.0188C2.32714 13.4221 2.28192 12.6752 2.22491 11.734L1.72998 3.5625H14.27L13.7627 11.7423Z" fill="black" fill-opacity="0.3"/>
<path fill-rule="evenodd" clip-rule="evenodd" d="M10.2036 1.38443C9.85696 1.12932 9.45333 0.999983 9.02385 0.962078C8.76036 0.93882 8.44435 0.938475 8.09361 0.9381C8.06268 0.938063 8.03144 0.938033 7.9999 0.93798C7.96829 0.937928 7.93667 0.937845 7.90505 0.937763C7.60463 0.936983 7.30336 0.936195 7.00423 0.963068C6.5651 1.00252 6.15335 1.1372 5.80245 1.40285C5.54298 1.59928 5.36564 1.83905 5.21584 2.09816C5.07696 2.33837 4.93871 2.63772 4.78173 2.97762L4.51132 3.56302H1.1599C0.74017 3.56302 0.399902 3.89881 0.399902 4.31302C0.399902 4.72724 0.74017 5.06302 1.1599 5.06302H14.8399C15.2597 5.06302 15.5999 4.72724 15.5999 4.31302C15.5999 3.89881 15.2597 3.56302 14.8399 3.56302H11.5585L11.2341 2.9028C11.0731 2.57498 10.9311 2.28599 10.7902 2.0542C10.638 1.80407 10.4599 1.57311 10.2036 1.38443ZM9.86927 3.56302H6.1818C6.33847 3.22423 6.44145 3.00515 6.53607 2.8415C6.68047 2.59176 6.8577 2.48243 7.14201 2.45689C7.34402 2.43875 7.60751 2.43802 8.02612 2.43802C8.43455 2.43802 8.69135 2.43872 8.88842 2.45612C9.16567 2.48059 9.34077 2.5859 9.48692 2.82615C9.58678 2.9903 9.69698 3.21248 9.86927 3.56302Z" fill="black" fill-opacity="0.3"/>
<path d="M6.09979 13.4736C5.78499 13.4736 5.52979 13.2219 5.52979 12.9111V8.41113C5.52979 8.10048 5.78499 7.84863 6.09979 7.84863C6.41458 7.84863 6.66979 8.10048 6.66979 8.41113V12.9111C6.66979 13.2219 6.41458 13.4736 6.09979 13.4736Z" fill="black" fill-opacity="0.3"/>
<path d="M9.89983 7.84863C10.2146 7.84863 10.4698 8.10048 10.4698 8.41113V12.9111C10.4698 13.2219 10.2146 13.4736 9.89983 13.4736C9.58504 13.4736 9.32983 13.2219 9.32983 12.9111V8.41113C9.32983 8.10048 9.58504 7.84863 9.89983 7.84863Z" fill="black" fill-opacity="0.3"/>
</svg>
